# xmcd
#
# Track frame offsets:
# 150
# 21207
# 48112
# 68801
# 86179
# 101550
# 125332
# 154956
# 168386
# 190421
# 210885
# 219830
# 246551
# 267122
# 295327
# 316778
#
# Disc length: 4567 seconds
#
#
# Revision: 0
# Processed by: cddbd v1.5.2PL0 Copyright (c) Steve Scherf et al.
# Submitted via: FreeRIP 2.96 
#
DISCID=e111d510
DTITLE=T.A. Barron - Merlin und die Flügel der Freiheit CD4v4
DYEAR=2007
DGENRE=Speech
TTITLE0=48 Merlin und die Flügel der Freiheit
TTITLE1=49 Merlin und die Flügel der Freiheit
TTITLE2=50 Merlin und die Flügel der Freiheit
TTITLE3=51 Merlin und die Flügel der Freiheit
TTITLE4=52 Merlin und die Flügel der Freiheit
TTITLE5=53 Merlin und die Flügel der Freiheit
TTITLE6=54 Merlin und die Flügel der Freiheit
TTITLE7=55 Merlin und die Flügel der Freiheit
TTITLE8=56 Merlin und die Flügel der Freiheit
TTITLE9=57 Merlin und die Flügel der Freiheit
TTITLE10=58 Merlin und die Flügel der Freiheit
TTITLE11=59 Merlin und die Flügel der Freiheit
TTITLE12=60 Merlin und die Flügel der Freiheit
TTITLE13=61 Merlin und die Flügel der Freiheit
TTITLE14=62 Merlin und die Flügel der Freiheit
TTITLE15=63 Merlin und die Flügel der Freiheit
EXTD=gelesen von Stefan Wilkening
EXTT0=
EXTT1=
EXTT2=
EXTT3=
EXTT4=
EXTT5=
EXTT6=
EXTT7=
EXTT8=
EXTT9=
EXTT10=
EXTT11=
EXTT12=
EXTT13=
EXTT14=
EXTT15=
PLAYORDER=
